<?xml version="1.0"?>
<svg width="1121" height="1119" xmlns="http://www.w3.org/2000/svg" version="1.1">
 <polygon points="4,1115 4,4 1117,4 1117,1115 4,1115" stroke-opacity="0.000000" stroke="#fffffe" fill-opacity="0.000000" fill="#fffffe"/>
 <polygon points="58,625 4,625 4,661 58,661 58,625" stroke="#90c4e4" fill="#1976d2"/>
 <text x="18" y="644" fill="#ffffff" font-family="Arial" font-size="9">main</text>
 <polygon points="208,598 94,598 94,634 208,634 208,598" stroke="#90c4e4" fill="none"/>
 <text x="102" y="617" fill="#000000" font-family="Arial" font-size="9">SortingFramework</text>
 <path d="M 58 637 C 66 635, 74 633, 83 631" stroke="#4e8cb9" fill="none"/>
 <polygon points="82,628 93,629 84,635 82,628" stroke="#4e8cb9" fill="#4e8cb9"/>
 <polygon points="178,652 124,652 124,688 178,688 178,652" stroke="#90c4e4" fill="none"/>
 <text x="141" y="671" fill="#000000" font-family="Arial" font-size="9">sort</text>
 <path d="M 58 649 C 75 653, 95 657, 113 662" stroke="#4e8cb9" fill="none"/>
 <polygon points="114,658 123,664 112,665 114,658" stroke="#4e8cb9" fill="#4e8cb9"/>
 <polygon points="645,449 561,449 561,485 645,485 645,449" stroke="#90c4e4" fill="none"/>
 <text x="569" y="468" fill="#000000" font-family="Arial" font-size="9">validateInput</text>
 <path d="M 178 661 C 189 657, 200 651, 208 643 C 233 619, 221 600, 244 575 C 292 522, 310 510, 377 486 C 434 466, 504 463, 550 464" stroke="#4e8cb9" fill="none"/>
 <polygon points="550,461 560,464 550,468 550,461" stroke="#4e8cb9" fill="#4e8cb9"/>
 <polygon points="339,933 247,933 247,969 339,969 339,933" stroke="#90c4e4" fill="none"/>
 <text x="255" y="952" fill="#000000" font-family="Arial" font-size="9">startCollection</text>
 <path d="M 154 688 C 161 734, 182 851, 244 924 C 244 924, 245 925, 245 925" stroke="#4e8cb9" fill="none"/>
 <polygon points="247,922 252,932 243,928 247,922" stroke="#4e8cb9" fill="#4e8cb9"/>
 <polygon points="326,357 260,357 260,393 326,393 326,357" stroke="#90c4e4" fill="none"/>
 <text x="268" y="376" fill="#000000" font-family="Arial" font-size="9">quickSort</text>
 <path d="M 178 663 C 189 659, 201 653, 208 643 C 260 575, 213 533, 244 453 C 251 435, 262 417, 272 402" stroke="#4e8cb9" fill="none"/>
 <polygon points="269,400 278,394 275,404 269,400" stroke="#4e8cb9" fill="#4e8cb9"/>
 <polygon points="329,602 257,602 257,638 329,638 329,602" stroke="#90c4e4" fill="none"/>
 <text x="265" y="621" fill="#000000" font-family="Arial" font-size="9">mergeSort</text>
 <path d="M 178 661 C 197 654, 223 644, 246 636" stroke="#4e8cb9" fill="none"/>
 <polygon points="245,633 255,633 247,639 245,633" stroke="#4e8cb9" fill="#4e8cb9"/>
 <polygon points="636,89 571,89 571,125 636,125 636,89" stroke="#90c4e4" fill="none"/>
 <text x="579" y="108" fill="#000000" font-family="Arial" font-size="9">heapSort</text>
 <path d="M 178 664 C 189 659, 201 653, 208 643 C 264 562, 200 289, 244 200 C 279 129, 303 109, 377 80 C 438 57, 514 75, 560 90" stroke="#4e8cb9" fill="none"/>
 <polygon points="561,87 569,94 559,94 561,87" stroke="#4e8cb9" fill="#4e8cb9"/>
 <polygon points="323,227 263,227 263,263 323,263 323,227" stroke="#90c4e4" fill="none"/>
 <text x="271" y="246" fill="#000000" font-family="Arial" font-size="9">introsort</text>
 <path d="M 178 663 C 189 659, 201 653, 208 643 C 289 529, 201 463, 244 330 C 251 309, 263 288, 273 272" stroke="#4e8cb9" fill="none"/>
 <polygon points="270,271 278,264 276,275 270,271" stroke="#4e8cb9" fill="#4e8cb9"/>
 <polygon points="325,725 261,725 261,761 325,761 325,725" stroke="#90c4e4" fill="none"/>
 <text x="269" y="744" fill="#000000" font-family="Arial" font-size="9">radixSort</text>
 <path d="M 178 684 C 199 694, 227 709, 250 721" stroke="#4e8cb9" fill="none"/>
 <polygon points="252,719 259,727 249,725 252,719" stroke="#4e8cb9" fill="#4e8cb9"/>
 <polygon points="320,825 266,825 266,861 320,861 320,825" stroke="#90c4e4" fill="none"/>
 <text x="274" y="844" fill="#000000" font-family="Arial" font-size="9">timSort</text>
 <path d="M 167 688 C 191 719, 241 780, 270 816" stroke="#4e8cb9" fill="none"/>
 <polygon points="273,814 277,824 268,818 273,814" stroke="#4e8cb9" fill="#4e8cb9"/>
 <polygon points="340,879 246,879 246,915 340,915 340,879" stroke="#90c4e4" fill="none"/>
 <text x="254" y="898" fill="#000000" font-family="Arial" font-size="9">validateOutput</text>
 <path d="M 156 688 C 166 726, 193 815, 244 870 C 245 871, 245 871, 246 872" stroke="#4e8cb9" fill="none"/>
 <polygon points="248,870 253,879 243,875 248,870" stroke="#4e8cb9" fill="#4e8cb9"/>
 <polygon points="341,987 244,987 244,1023 341,1023 341,987" stroke="#90c4e4" fill="none"/>
 <text x="253" y="1006" fill="#000000" font-family="Arial" font-size="9">finishCollection</text>
 <path d="M 153 688 C 156 740, 172 887, 244 978 C 244 979, 245 979, 245 980" stroke="#4e8cb9" fill="none"/>
 <polygon points="247,976 252,986 242,982 247,976" stroke="#4e8cb9" fill="#4e8cb9"/>
 <polygon points="974,520 853,520 853,556 974,556 974,520" stroke="#90c4e4" fill="none"/>
 <text x="862" y="539" fill="#000000" font-family="Arial" font-size="9">ValidationException</text>
 <path d="M 645 456 C 689 446, 760 436, 817 457 C 847 468, 873 492, 891 511" stroke="#4e8cb9" fill="none"/>
 <polygon points="893,509 897,519 888,513 893,509" stroke="#4e8cb9" fill="#4e8cb9"/>
 <polygon points="816,520 699,520 699,556 816,556 816,520" stroke="#90c4e4" fill="none"/>
 <text x="708" y="539" fill="#000000" font-family="Arial" font-size="9">enforceConstraints</text>
 <path d="M 644 485 C 650 488, 656 491, 662 494 C 678 502, 682 504, 698 511 C 701 512, 704 514, 707 515" stroke="#4e8cb9" fill="none"/>
 <polygon points="708,512 716,520 705,519 708,512" stroke="#4e8cb9" fill="#4e8cb9"/>
 <polygon points="809,466 707,466 707,502 809,502 809,466" stroke="#90c4e4" fill="none"/>
 <text x="715" y="485" fill="#000000" font-family="Arial" font-size="9">customValidator</text>
 <path d="M 645 472 C 661 473, 679 475, 695 477" stroke="#4e8cb9" fill="none"/>
 <polygon points="696,474 705,478 695,481 696,474" stroke="#4e8cb9" fill="#4e8cb9"/>
 <polygon points="1117,520 1010,520 1010,556 1117,556 1117,520" stroke="#90c4e4" fill="none"/>
 <text x="1019" y="539" fill="#000000" font-family="Arial" font-size="9">SortingException</text>
 <path d="M 974 538 C 982 538, 991 538, 999 538" stroke="#4e8cb9" fill="none"/>
 <polygon points="999,534 1009,538 999,541 999,534" stroke="#4e8cb9" fill="#4e8cb9"/>
 <path d="M 816 538 C 825 538, 833 538, 842 538" stroke="#4e8cb9" fill="none"/>
 <polygon points="842,534 852,538 842,541 842,534" stroke="#4e8cb9" fill="#4e8cb9"/>
 <path d="M 267 357 C 263 347, 272 339, 293 339 C 305 339, 313 342, 316 346" stroke="#4e8cb9" fill="none"/>
 <polygon points="320,345 318,356 313,346 320,345" stroke="#4e8cb9" fill="#4e8cb9"/>
 <polygon points="494,403 391,403 391,439 494,439 494,403" stroke="#90c4e4" fill="none"/>
 <text x="400" y="422" fill="#000000" font-family="Arial" font-size="9">recordOperation</text>
 <path d="M 326 385 C 342 390, 362 396, 380 402" stroke="#4e8cb9" fill="none"/>
 <polygon points="381,399 390,405 379,406 381,399" stroke="#4e8cb9" fill="#4e8cb9"/>
 <polygon points="501,495 385,495 385,531 501,531 501,495" stroke="#90c4e4" fill="none"/>
 <text x="393" y="514" fill="#000000" font-family="Arial" font-size="9">checkPerformance</text>
 <path d="M 313 393 C 339 417, 385 460, 414 487" stroke="#4e8cb9" fill="none"/>
 <polygon points="416,484 421,494 411,489 416,484" stroke="#4e8cb9" fill="#4e8cb9"/>
 <polygon points="633,202 574,202 574,238 633,238 633,202" stroke="#90c4e4" fill="none"/>
 <text x="582" y="221" fill="#000000" font-family="Arial" font-size="9">partition</text>
 <path d="M 311 357 C 326 340, 351 317, 377 302 C 437 266, 516 242, 563 230" stroke="#4e8cb9" fill="none"/>
 <polygon points="562,226 572,227 563,233 562,226" stroke="#4e8cb9" fill="#4e8cb9"/>
 <polygon points="809,320 707,320 707,356 809,356 809,320" stroke="#90c4e4" fill="none"/>
 <text x="715" y="339" fill="#000000" font-family="Arial" font-size="9">validatePartition</text>
 <path d="M 326 378 C 410 385, 631 404, 662 393 C 681 386, 681 376, 698 365 C 700 364, 702 363, 704 361" stroke="#4e8cb9" fill="none"/>
 <polygon points="702,358 713,356 706,364 702,358" stroke="#4e8cb9" fill="#4e8cb9"/>
 <polygon points="504,311 381,311 381,347 504,347 504,311" stroke="#90c4e4" fill="none"/>
 <text x="390" y="330" fill="#000000" font-family="Arial" font-size="9">randomizedPartition</text>
 <path d="M 326 365 C 340 361, 356 356, 372 351" stroke="#4e8cb9" fill="none"/>
 <polygon points="371,347 381,347 373,354 371,347" stroke="#4e8cb9" fill="#4e8cb9"/>
 <polygon points="508,181 377,181 377,217 508,217 508,181" stroke="#90c4e4" fill="none"/>
 <text x="386" y="200" fill="#000000" font-family="Arial" font-size="9">handleSmallSubarray</text>
 <path d="M 307 357 C 323 335, 351 299, 377 269 C 390 254, 404 238, 417 225" stroke="#4e8cb9" fill="none"/>
 <polygon points="413,223 423,218 419,228 413,223" stroke="#4e8cb9" fill="#4e8cb9"/>
 <polygon points="658,503 548,503 548,539 658,539 658,503" stroke="#90c4e4" fill="none"/>
 <text x="556" y="522" fill="#000000" font-family="Arial" font-size="9">enforceThreshold</text>
 <path d="M 501 516 C 512 516, 525 517, 537 518" stroke="#4e8cb9" fill="none"/>
 <polygon points="537,514 547,518 536,521 537,514" stroke="#4e8cb9" fill="#4e8cb9"/>
 <polygon points="795,258 721,258 721,294 795,294 795,258" stroke="#90c4e4" fill="none"/>
 <text x="729" y="277" fill="#000000" font-family="Arial" font-size="9">selectPivot</text>
 <path d="M 633 231 C 654 239, 685 250, 710 259" stroke="#4e8cb9" fill="none"/>
 <polygon points="711,256 719,263 709,262 711,256" stroke="#4e8cb9" fill="#4e8cb9"/>
 <polygon points="815,374 700,374 700,410 815,410 815,374" stroke="#90c4e4" fill="none"/>
 <text x="709" y="393" fill="#000000" font-family="Arial" font-size="9">recordComparison</text>
 <path d="M 623 238 C 635 251, 651 268, 662 285 C 683 318, 671 337, 698 365 C 699 366, 699 366, 700 367" stroke="#4e8cb9" fill="none"/>
 <polygon points="702,365 708,374 698,370 702,365" stroke="#4e8cb9" fill="#4e8cb9"/>
 <polygon points="805,204 711,204 711,240 805,240 805,204" stroke="#90c4e4" fill="none"/>
 <text x="719" y="223" fill="#000000" font-family="Arial" font-size="9">swapElements</text>
 <path d="M 633 220 C 651 221, 677 221, 699 221" stroke="#4e8cb9" fill="none"/>
 <polygon points="699,218 709,221 699,225 699,218" stroke="#4e8cb9" fill="#4e8cb9"/>
 <polygon points="798,150 718,150 718,186 798,186 798,150" stroke="#90c4e4" fill="none"/>
 <text x="726" y="169" fill="#000000" font-family="Arial" font-size="9">recordSwap</text>
 <path d="M 633 210 C 654 203, 682 193, 707 185" stroke="#4e8cb9" fill="none"/>
 <polygon points="705,181 716,181 708,188 705,181" stroke="#4e8cb9" fill="#4e8cb9"/>
 <path d="M 806 356 C 810 359, 814 362, 817 365 C 861 406, 890 472, 903 509" stroke="#4e8cb9" fill="none"/>
 <polygon points="907,508 907,519 900,510 907,508" stroke="#4e8cb9" fill="#4e8cb9"/>
 <path d="M 487 311 C 494 307, 502 302, 508 297 C 528 281, 524 268, 544 252 C 550 247, 557 242, 564 238" stroke="#4e8cb9" fill="none"/>
 <polygon points="562,235 572,233 565,241 562,235" stroke="#4e8cb9" fill="#4e8cb9"/>
 <path d="M 483 310 C 501 302, 523 293, 544 285 C 596 266, 657 248, 700 237" stroke="#4e8cb9" fill="none"/>
 <polygon points="699,233 709,234 701,240 699,233" stroke="#4e8cb9" fill="#4e8cb9"/>
 <polygon points="630,348 576,348 576,384 630,384 630,348" stroke="#90c4e4" fill="none"/>
 <text x="598" y="367" fill="#000000" font-family="Arial" font-size="9">rd</text>
 <path d="M 504 343 C 525 348, 547 353, 565 357" stroke="#4e8cb9" fill="none"/>
 <polygon points="566,354 575,360 564,361 566,354" stroke="#4e8cb9" fill="#4e8cb9"/>
 <polygon points="630,294 576,294 576,330 630,330 630,294" stroke="#90c4e4" fill="none"/>
 <text x="595" y="313" fill="#000000" font-family="Arial" font-size="9">dis</text>
 <path d="M 504 322 C 525 320, 547 318, 565 316" stroke="#4e8cb9" fill="none"/>
 <polygon points="565,312 575,315 565,319 565,312" stroke="#4e8cb9" fill="#4e8cb9"/>
 <polygon points="645,144 561,144 561,180 645,180 645,144" stroke="#90c4e4" fill="none"/>
 <text x="569" y="163" fill="#000000" font-family="Arial" font-size="9">insertionSort</text>
 <path d="M 508 184 C 522 181, 537 177, 550 174" stroke="#4e8cb9" fill="none"/>
 <polygon points="549,171 560,172 551,177 549,171" stroke="#4e8cb9" fill="#4e8cb9"/>
 <path d="M 303 602 C 318 575, 346 525, 377 486 C 388 472, 401 458, 413 447" stroke="#4e8cb9" fill="none"/>
 <polygon points="410,445 420,440 415,450 410,445" stroke="#4e8cb9" fill="#4e8cb9"/>
 <path d="M 267 602 C 263 592, 272 584, 293 584 C 305 584, 313 587, 316 591" stroke="#4e8cb9" fill="none"/>
 <polygon points="320,590 318,601 313,591 320,590" stroke="#4e8cb9" fill="#4e8cb9"/>
 <polygon points="630,625 576,625 576,661 630,661 630,625" stroke="#90c4e4" fill="none"/>
 <text x="586" y="644" fill="#000000" font-family="Arial" font-size="9">merge</text>
 <path d="M 329 616 C 371 612, 445 607, 508 616 C 527 619, 548 624, 566 630" stroke="#4e8cb9" fill="none"/>
 <polygon points="566,627 575,633 564,633 566,627" stroke="#4e8cb9" fill="#4e8cb9"/>
 <polygon points="649,561 557,561 557,597 649,597 649,561" stroke="#90c4e4" fill="none"/>
 <text x="565" y="580" fill="#000000" font-family="Arial" font-size="9">validateMerge</text>
 <path d="M 329 610 C 343 607, 361 603, 377 600 C 434 591, 500 585, 546 582" stroke="#4e8cb9" fill="none"/>
 <polygon points="545,578 556,581 546,585 545,578" stroke="#4e8cb9" fill="#4e8cb9"/>
 <polygon points="494,625 392,625 392,661 494,661 494,625" stroke="#90c4e4" fill="none"/>
 <text x="400" y="644" fill="#000000" font-family="Arial" font-size="9">optimizedMerge</text>
 <path d="M 329 626 C 344 628, 363 631, 380 634" stroke="#4e8cb9" fill="none"/>
 <polygon points="381,630 390,635 380,637 381,630" stroke="#4e8cb9" fill="#4e8cb9"/>
 <polygon points="488,679 398,679 398,715 488,715 488,679" stroke="#90c4e4" fill="none"/>
 <text x="406" y="698" fill="#000000" font-family="Arial" font-size="9">inPlaceMerge</text>
 <path d="M 322 638 C 338 648, 358 660, 377 670 C 380 672, 384 673, 387 675" stroke="#4e8cb9" fill="none"/>
 <polygon points="388,672 396,679 386,678 388,672" stroke="#4e8cb9" fill="#4e8cb9"/>
 <path d="M 630 632 C 642 626, 654 617, 662 606 C 702 551, 666 517, 698 457 C 706 443, 717 429, 728 418" stroke="#4e8cb9" fill="none"/>
 <polygon points="725,416 734,411 730,421 725,416" stroke="#4e8cb9" fill="#4e8cb9"/>
 <polygon points="817,614 698,614 698,650 817,650 817,614" stroke="#90c4e4" fill="none"/>
 <text x="707" y="633" fill="#000000" font-family="Arial" font-size="9">allocateTempBuffer</text>
 <path d="M 630 641 C 646 640, 667 638, 687 637" stroke="#4e8cb9" fill="none"/>
 <polygon points="687,633 697,636 687,640 687,633" stroke="#4e8cb9" fill="#4e8cb9"/>
 <polygon points="792,668 723,668 723,704 792,704 792,668" stroke="#90c4e4" fill="none"/>
 <text x="732" y="687" fill="#000000" font-family="Arial" font-size="9">copyBack</text>
 <path d="M 630 650 C 653 657, 685 666, 712 673" stroke="#4e8cb9" fill="none"/>
 <polygon points="713,670 722,676 711,677 713,670" stroke="#4e8cb9" fill="#4e8cb9"/>
 <path d="M 649 579 C 693 578, 760 575, 817 565 C 826 563, 835 561, 844 559" stroke="#4e8cb9" fill="none"/>
 <polygon points="843,556 854,556 845,562 843,556" stroke="#4e8cb9" fill="#4e8cb9"/>
 <path d="M 494 643 C 517 643, 544 643, 565 643" stroke="#4e8cb9" fill="none"/>
 <polygon points="565,639 575,643 565,646 565,639" stroke="#4e8cb9" fill="#4e8cb9"/>
 <path d="M 488 682 C 512 674, 543 663, 566 655" stroke="#4e8cb9" fill="none"/>
 <polygon points="564,652 575,652 567,658 564,652" stroke="#4e8cb9" fill="#4e8cb9"/>
 <path d="M 636 118 C 645 123, 654 128, 662 135 C 685 156, 675 174, 698 195 C 699 196, 700 197, 701 198" stroke="#4e8cb9" fill="none"/>
 <polygon points="703,195 709,204 699,201 703,195" stroke="#4e8cb9" fill="#4e8cb9"/>
 <path d="M 636 120 C 657 128, 684 139, 707 148" stroke="#4e8cb9" fill="none"/>
 <polygon points="708,145 716,152 706,152 708,145" stroke="#4e8cb9" fill="#4e8cb9"/>
 <polygon points="804,4 711,4 711,40 804,40 804,4" stroke="#90c4e4" fill="none"/>
 <text x="720" y="23" fill="#000000" font-family="Arial" font-size="9">buildMaxHeap</text>
 <path d="M 636 89 C 654 79, 677 66, 698 54 C 703 51, 708 48, 713 45" stroke="#4e8cb9" fill="none"/>
 <polygon points="711,42 722,40 715,48 711,42" stroke="#4e8cb9" fill="#4e8cb9"/>
 <polygon points="954,14 874,14 874,50 954,50 954,14" stroke="#90c4e4" fill="none"/>
 <text x="882" y="33" fill="#000000" font-family="Arial" font-size="9">maxHeapify</text>
 <path d="M 636 99 C 690 86, 798 60, 862 44" stroke="#4e8cb9" fill="none"/>
 <polygon points="862,41 872,42 863,47 862,41" stroke="#4e8cb9" fill="#4e8cb9"/>
 <polygon points="801,96 715,96 715,132 801,132 801,96" stroke="#90c4e4" fill="none"/>
 <text x="723" y="115" fill="#000000" font-family="Arial" font-size="9">validateHeap</text>
 <path d="M 636 108 C 655 109, 681 111, 703 112" stroke="#4e8cb9" fill="none"/>
 <polygon points="703,108 713,112 703,115 703,108" stroke="#4e8cb9" fill="#4e8cb9"/>
 <path d="M 804 25 C 823 26, 844 28, 862 29" stroke="#4e8cb9" fill="none"/>
 <polygon points="862,25 872,29 862,32 862,25" stroke="#4e8cb9" fill="#4e8cb9"/>
 <path d="M 801 128 C 807 131, 813 136, 817 141 C 864 198, 898 428, 909 509" stroke="#4e8cb9" fill="none"/>
 <polygon points="912,508 910,519 905,509 912,508" stroke="#4e8cb9" fill="#4e8cb9"/>
 <polygon points="944,77 884,77 884,113 944,113 944,77" stroke="#90c4e4" fill="none"/>
 <text x="892" y="96" fill="#000000" font-family="Arial" font-size="9">leftChild</text>
 <path d="M 801 109 C 823 106, 851 103, 873 100" stroke="#4e8cb9" fill="none"/>
 <polygon points="872,96 882,99 873,103 872,96" stroke="#4e8cb9" fill="#4e8cb9"/>
 <polygon points="947,131 880,131 880,167 947,167 947,131" stroke="#90c4e4" fill="none"/>
 <text x="889" y="150" fill="#000000" font-family="Arial" font-size="9">rightChild</text>
 <path d="M 801 124 C 822 128, 848 134, 869 139" stroke="#4e8cb9" fill="none"/>
 <polygon points="870,136 879,142 868,143 870,136" stroke="#4e8cb9" fill="#4e8cb9"/>
 <path d="M 306 263 C 322 286, 350 325, 377 356 C 389 369, 402 383, 414 395" stroke="#4e8cb9" fill="none"/>
 <polygon points="416,392 421,402 411,397 416,392" stroke="#4e8cb9" fill="#4e8cb9"/>
 <path d="M 323 243 C 379 238, 500 228, 563 223" stroke="#4e8cb9" fill="none"/>
 <polygon points="562,220 572,222 563,227 562,220" stroke="#4e8cb9" fill="#4e8cb9"/>
 <path d="M 308 227 C 323 209, 348 183, 377 172 C 433 150, 503 151, 550 155" stroke="#4e8cb9" fill="none"/>
 <polygon points="550,151 560,156 550,158 550,151" stroke="#4e8cb9" fill="#4e8cb9"/>
 <path d="M 267 227 C 263 217, 272 209, 293 209 C 305 209, 313 212, 316 216" stroke="#4e8cb9" fill="none"/>
 <polygon points="320,215 318,226 313,216 320,215" stroke="#4e8cb9" fill="#4e8cb9"/>
 <polygon points="493,89 392,89 392,125 493,125 493,89" stroke="#90c4e4" fill="none"/>
 <text x="401" y="108" fill="#000000" font-family="Arial" font-size="9">heapSortRange</text>
 <path d="M 304 227 C 318 204, 346 165, 377 139 C 380 136, 384 133, 388 131" stroke="#4e8cb9" fill="none"/>
 <polygon points="386,128 397,125 390,134 386,128" stroke="#4e8cb9" fill="#4e8cb9"/>
 <path d="M 493 107 C 515 107, 539 107, 560 107" stroke="#4e8cb9" fill="none"/>
 <polygon points="559,103 569,107 559,110 559,103" stroke="#4e8cb9" fill="#4e8cb9"/>
 <path d="M 305 725 C 331 684, 393 588, 424 540" stroke="#4e8cb9" fill="none"/>
 <polygon points="421,539 430,532 427,542 421,539" stroke="#4e8cb9" fill="#4e8cb9"/>
 <polygon points="661,720 546,720 546,756 661,756 661,720" stroke="#90c4e4" fill="none"/>
 <text x="554" y="739" fill="#000000" font-family="Arial" font-size="9">validateRadixInput</text>
 <path d="M 325 742 C 374 742, 469 740, 534 739" stroke="#4e8cb9" fill="none"/>
 <polygon points="534,736 544,739 534,743 534,736" stroke="#4e8cb9" fill="#4e8cb9"/>
 <polygon points="471,771 415,771 415,807 471,807 471,771" stroke="#90c4e4" fill="none"/>
 <text x="423" y="790" fill="#000000" font-family="Arial" font-size="9">getMax</text>
 <path d="M 325 753 C 348 760, 379 770, 404 777" stroke="#4e8cb9" fill="none"/>
 <polygon points="405,774 413,780 403,781 405,774" stroke="#4e8cb9" fill="#4e8cb9"/>
 <polygon points="485,879 401,879 401,915 485,915 485,879" stroke="#90c4e4" fill="none"/>
 <text x="409" y="898" fill="#000000" font-family="Arial" font-size="9">countingSort</text>
 <path d="M 305 761 C 328 796, 376 869, 377 870 C 381 873, 386 877, 391 879" stroke="#4e8cb9" fill="none"/>
 <polygon points="392,876 399,884 389,883 392,876" stroke="#4e8cb9" fill="#4e8cb9"/>
 <path d="M 661 745 C 707 747, 771 744, 817 713 C 868 678, 894 607, 906 567" stroke="#4e8cb9" fill="none"/>
 <polygon points="902,566 908,557 909,568 902,566" stroke="#4e8cb9" fill="#4e8cb9"/>
 <polygon points="662,906 544,906 544,942 662,942 662,906" stroke="#90c4e4" fill="none"/>
 <text x="552" y="925" fill="#000000" font-family="Arial" font-size="9">allocateCountArray</text>
 <path d="M 485 904 C 499 907, 517 909, 533 912" stroke="#4e8cb9" fill="none"/>
 <polygon points="533,909 543,914 532,916 533,909" stroke="#4e8cb9" fill="#4e8cb9"/>
 <polygon points="659,852 548,852 548,888 659,888 659,852" stroke="#90c4e4" fill="none"/>
 <text x="556" y="871" fill="#000000" font-family="Arial" font-size="9">computePositions</text>
 <path d="M 485 890 C 501 887, 519 884, 536 881" stroke="#4e8cb9" fill="none"/>
 <polygon points="536,878 546,879 537,884 536,878" stroke="#4e8cb9" fill="#4e8cb9"/>
 <polygon points="506,933 379,933 379,969 506,969 506,933" stroke="#90c4e4" fill="none"/>
 <text x="388" y="952" fill="#000000" font-family="Arial" font-size="9">computeMinRunSize</text>
 <path d="M 320 855 C 327 859, 335 864, 341 870 C 362 890, 355 906, 377 924 C 378 925, 379 926, 380 927" stroke="#4e8cb9" fill="none"/>
 <polygon points="382,924 389,933 378,930 382,924" stroke="#4e8cb9" fill="#4e8cb9"/>
 <polygon points="475,987 411,987 411,1023 475,1023 475,987" stroke="#90c4e4" fill="none"/>
 <text x="419" y="1006" fill="#000000" font-family="Arial" font-size="9">findRuns</text>
 <path d="M 320 853 C 327 858, 335 863, 341 870 C 373 909, 343 941, 377 978 C 383 985, 392 990, 400 994" stroke="#4e8cb9" fill="none"/>
 <polygon points="401,991 409,998 398,997 401,991" stroke="#4e8cb9" fill="#4e8cb9"/>
 <polygon points="482,825 404,825 404,861 482,861 482,825" stroke="#90c4e4" fill="none"/>
 <text x="412" y="844" fill="#000000" font-family="Arial" font-size="9">mergeRuns</text>
 <path d="M 320 843 C 340 843, 368 843, 392 843" stroke="#4e8cb9" fill="none"/>
 <polygon points="392,839 402,843 392,846 392,839" stroke="#4e8cb9" fill="#4e8cb9"/>
 <path d="M 482 833 C 491 829, 501 824, 508 816 C 542 780, 520 754, 544 711 C 553 696, 565 681, 576 669" stroke="#4e8cb9" fill="none"/>
 <polygon points="572,667 582,662 578,672 572,667" stroke="#4e8cb9" fill="#4e8cb9"/>
 <path d="M 332 915 C 335 918, 338 921, 341 924 C 373 963, 336 1002, 377 1032 C 484 1109, 561 1036, 662 951 C 794 840, 876 640, 903 566" stroke="#4e8cb9" fill="none"/>
 <polygon points="900,565 906,557 906,568 900,565" stroke="#4e8cb9" fill="#4e8cb9"/>
 <polygon points="484,1079 401,1079 401,1115 484,1115 484,1079" stroke="#90c4e4" fill="none"/>
 <text x="410" y="1098" fill="#000000" font-family="Arial" font-size="9">checkSorted</text>
 <path d="M 333 915 C 336 918, 339 921, 341 924 C 380 975, 336 1015, 377 1065 C 381 1070, 386 1074, 391 1078" stroke="#4e8cb9" fill="none"/>
 <polygon points="393,1075 400,1083 389,1081 393,1075" stroke="#4e8cb9" fill="#4e8cb9"/>
</svg>
