<?xml version="1.0"?>
<svg width="1315" height="2531" xmlns="http://www.w3.org/2000/svg" version="1.1">
 <polygon points="4,2527 4,4 1312,4 1312,2527 4,2527" stroke-opacity="0.000000" stroke="#fffffe" fill-opacity="0.000000" fill="#fffffe"/>
 <polygon points="58,647 4,647 4,683 58,683 58,647" stroke="#90c4e4" fill="#1976d2"/>
 <text x="18" y="666" fill="#ffffff" font-family="Arial" font-size="9">main</text>
 <polygon points="228,456 228,442 198,431 155,431 125,442 125,456 155,467 198,467 228,456" stroke="#c0c0c0" fill="none"/>
 <text x="148" y="450" fill="#000000" font-family="Arial" font-size="9">operator&lt;&lt;</text>
 <path d="M 33 647 C 35 609, 46 524, 94 476 C 100 470, 108 465, 116 461" stroke="#4e8cb9" fill="none"/>
 <polygon points="115,458 126,457 118,464 115,458" stroke="#4e8cb9" fill="#4e8cb9"/>
 <polygon points="228,510 228,496 198,485 155,485 125,496 125,510 155,521 198,521 228,510" stroke="#c0c0c0" fill="none"/>
 <text x="148" y="504" fill="#000000" font-family="Arial" font-size="9">operator&lt;&lt;</text>
 <path d="M 35 647 C 42 618, 58 562, 94 530 C 101 524, 109 519, 118 516" stroke="#4e8cb9" fill="none"/>
 <polygon points="116,512 127,512 119,519 116,512" stroke="#4e8cb9" fill="#4e8cb9"/>
 <polygon points="204,564 204,550 188,539 166,539 150,550 150,564 166,575 188,575 204,564" stroke="#c0c0c0" fill="none"/>
 <text x="166" y="558" fill="#000000" font-family="Arial" font-size="9">endl</text>
 <path d="M 42 647 C 52 628, 71 601, 94 584 C 107 575, 124 568, 139 564" stroke="#4e8cb9" fill="none"/>
 <polygon points="138,561 148,562 139,567 138,561" stroke="#4e8cb9" fill="#4e8cb9"/>
 <polygon points="234,593 120,593 120,629 234,629 234,593" stroke="#90c4e4" fill="none"/>
 <text x="128" y="612" fill="#000000" font-family="Arial" font-size="9">SortingFramework</text>
 <path d="M 58 653 C 69 648, 82 643, 94 638 C 99 636, 104 634, 110 632" stroke="#4e8cb9" fill="none"/>
 <polygon points="108,629 119,629 110,635 108,629" stroke="#4e8cb9" fill="#4e8cb9"/>
 <polygon points="210,672 210,658 191,647 163,647 143,658 143,672 163,683 191,683 210,672" stroke="#c0c0c0" fill="none"/>
 <text x="161" y="666" fill="#000000" font-family="Arial" font-size="9">vector</text>
 <path d="M 58 665 C 79 665, 108 665, 132 665" stroke="#4e8cb9" fill="none"/>
 <polygon points="132,661 142,665 132,668 132,661" stroke="#4e8cb9" fill="#4e8cb9"/>
 <polygon points="204,701 150,701 150,737 204,737 204,701" stroke="#90c4e4" fill="none"/>
 <text x="167" y="720" fill="#000000" font-family="Arial" font-size="9">sort</text>
 <path d="M 58 677 C 69 682, 82 687, 94 692 C 109 698, 125 703, 139 708" stroke="#4e8cb9" fill="none"/>
 <polygon points="140,705 148,711 138,711 140,705" stroke="#4e8cb9" fill="#4e8cb9"/>
 <polygon points="1163,545 1163,531 1131,520 1086,520 1054,531 1054,545 1086,556 1131,556 1163,545" stroke="#c0c0c0" fill="none"/>
 <text x="1076" y="539" fill="#000000" font-family="Arial" font-size="9">basic_string</text>
 <path d="M 42 683 C 52 702, 71 729, 94 746 C 199 822, 239 841, 368 841 C 368 841, 368 841, 546 841 C 684 841, 721 847, 857 822 C 859 822, 1010 775, 1012 773 C 1073 702, 990 639, 1048 565 C 1050 562, 1054 559, 1057 556" stroke="#4e8cb9" fill="none"/>
 <polygon points="1055,552 1065,550 1059,558 1055,552" stroke="#4e8cb9" fill="#4e8cb9"/>
 <polygon points="991,1381 991,1367 968,1356 936,1356 914,1367 914,1381 936,1392 968,1392 991,1381" stroke="#c0c0c0" fill="none"/>
 <text x="932" y="1375" fill="#000000" font-family="Arial" font-size="9">~vector</text>
 <path d="M 36 683 C 61 782, 191 1252, 479 1485 C 527 1524, 561 1493, 610 1531 C 633 1549, 621 1571, 646 1585 C 687 1607, 821 1615, 857 1585 C 921 1532, 841 1467, 893 1401 C 897 1396, 902 1392, 907 1388" stroke="#4e8cb9" fill="none"/>
 <polygon points="906,1385 916,1383 909,1391 906,1385" stroke="#4e8cb9" fill="#4e8cb9"/>
 <polygon points="259,1976 259,1962 211,1951 142,1951 94,1962 94,1976 142,1987 211,1987 259,1976" stroke="#c0c0c0" fill="none"/>
 <text x="125" y="1970" fill="#000000" font-family="Arial" font-size="9">~SortingFramework</text>
 <path d="M 33 683 C 36 774, 51 1189, 94 1526 C 114 1683, 154 1869, 169 1940" stroke="#4e8cb9" fill="none"/>
 <polygon points="173,1939 172,1950 166,1941 173,1939" stroke="#4e8cb9" fill="#4e8cb9"/>
 <polygon points="419,257 419,243 390,232 349,232 319,243 319,257 349,268 390,268 419,257" stroke="#c0c0c0" fill="none"/>
 <text x="341" y="251" fill="#000000" font-family="Arial" font-size="9">unique_ptr</text>
 <path d="M 234 602 C 244 598, 253 592, 259 584 C 345 479, 215 391, 295 282 C 301 275, 308 269, 316 265" stroke="#4e8cb9" fill="none"/>
 <polygon points="314,261 325,260 317,268 314,261" stroke="#4e8cb9" fill="#4e8cb9"/>
 <polygon points="416,149 416,135 389,124 350,124 323,135 323,149 350,160 389,160 416,149" stroke="#c0c0c0" fill="none"/>
 <text x="343" y="143" fill="#000000" font-family="Arial" font-size="9">operator=</text>
 <path d="M 234 602 C 244 598, 253 592, 259 584 C 317 511, 239 243, 295 169 C 300 163, 306 158, 313 154" stroke="#4e8cb9" fill="none"/>
 <polygon points="312,151 322,150 314,157 312,151" stroke="#4e8cb9" fill="#4e8cb9"/>
 <polygon points="430,203 430,189 395,178 344,178 308,189 308,203 344,214 395,214 430,203" stroke="#c0c0c0" fill="none"/>
 <text x="333" y="197" fill="#000000" font-family="Arial" font-size="9">make_unique</text>
 <path d="M 234 602 C 244 598, 253 592, 259 584 C 360 458, 197 351, 295 223 C 299 219, 303 215, 308 212" stroke="#4e8cb9" fill="none"/>
 <polygon points="306,208 316,207 309,214 306,208" stroke="#4e8cb9" fill="#4e8cb9"/>
 <polygon points="793,260 709,260 709,296 793,296 793,260" stroke="#90c4e4" fill="none"/>
 <text x="717" y="279" fill="#000000" font-family="Arial" font-size="9">validateInput</text>
 <path d="M 204 713 C 221 709, 242 702, 259 692 C 278 681, 276 668, 295 659 C 423 599, 502 707, 610 616 C 650 582, 627 552, 646 503 C 674 430, 715 348, 736 306" stroke="#4e8cb9" fill="none"/>
 <polygon points="733,305 741,297 740,308 733,305" stroke="#4e8cb9" fill="#4e8cb9"/>
 <polygon points="986,461 986,447 966,436 938,436 919,447 919,461 938,472 966,472 986,461" stroke="#c0c0c0" fill="none"/>
 <text x="936" y="455" fill="#000000" font-family="Arial" font-size="9">empty</text>
 <path d="M 204 716 C 295 704, 591 666, 610 659 C 645 646, 860 499, 893 481 C 900 477, 908 473, 915 470" stroke="#4e8cb9" fill="none"/>
 <polygon points="913,466 924,465 916,473 913,466" stroke="#4e8cb9" fill="#4e8cb9"/>
 <polygon points="1305,288 1305,274 1277,263 1239,263 1212,274 1212,288 1239,299 1277,299 1305,288" stroke="#c0c0c0" fill="none"/>
 <text x="1232" y="282" fill="#000000" font-family="Arial" font-size="9">operator+</text>
 <path d="M 204 718 C 222 715, 246 709, 259 692 C 356 572, 206 472, 295 346 C 337 287, 378 309, 443 277 C 645 177, 674 97, 893 43 C 1012 14, 1068 -27, 1169 43 C 1238 91, 1253 199, 1256 252" stroke="#4e8cb9" fill="none"/>
 <polygon points="1260,251 1257,262 1253,252 1260,251" stroke="#4e8cb9" fill="#4e8cb9"/>
 <polygon points="1135,1121 1135,1107 1119,1096 1097,1096 1081,1107 1081,1121 1097,1132 1119,1132 1135,1121" stroke="#c0c0c0" fill="none"/>
 <text x="1097" y="1115" fill="#000000" font-family="Arial" font-size="9">size</text>
 <path d="M 204 726 C 273 744, 461 797, 610 862 C 741 919, 762 957, 893 1016 C 944 1039, 961 1035, 1012 1059 C 1035 1070, 1060 1084, 1079 1096" stroke="#4e8cb9" fill="none"/>
 <polygon points="1080,1093 1087,1102 1077,1099 1080,1093" stroke="#4e8cb9" fill="#4e8cb9"/>
 <polygon points="1001,1818 1001,1804 973,1793 932,1793 903,1804 903,1818 932,1829 973,1829 1001,1818" stroke="#c0c0c0" fill="none"/>
 <text x="924" y="1812" fill="#000000" font-family="Arial" font-size="9">operator-&gt;</text>
 <path d="M 178 737 C 180 900, 204 2098, 479 2277 C 549 2323, 792 2330, 857 2277 C 889 2250, 884 2133, 893 2092 C 911 2000, 934 1891, 945 1840" stroke="#4e8cb9" fill="none"/>
 <polygon points="942,1839 947,1830 949,1841 942,1839" stroke="#4e8cb9" fill="#4e8cb9"/>
 <polygon points="415,355 323,355 323,391 415,391 415,355" stroke="#90c4e4" fill="none"/>
 <text x="331" y="374" fill="#000000" font-family="Arial" font-size="9">startCollection</text>
 <path d="M 204 717 C 222 715, 246 708, 259 692 C 342 591, 214 503, 295 400 C 300 394, 307 389, 313 386" stroke="#4e8cb9" fill="none"/>
 <polygon points="311,382 322,381 314,389 311,382" stroke="#4e8cb9" fill="#4e8cb9"/>
 <polygon points="421,434 421,420 391,409 348,409 318,420 318,434 348,445 391,445 421,434" stroke="#c0c0c0" fill="none"/>
 <text x="340" y="428" fill="#000000" font-family="Arial" font-size="9">operator==</text>
 <path d="M 204 717 C 222 715, 246 708, 259 692 C 328 610, 228 537, 295 454 C 300 448, 306 444, 312 441" stroke="#4e8cb9" fill="none"/>
 <polygon points="310,437 321,436 313,443 310,437" stroke="#4e8cb9" fill="#4e8cb9"/>
 <polygon points="402,1738 336,1738 336,1774 402,1774 402,1738" stroke="#90c4e4" fill="none"/>
 <text x="344" y="1757" fill="#000000" font-family="Arial" font-size="9">quickSort</text>
 <path d="M 177 737 C 176 833, 178 1287, 295 1631 C 308 1667, 331 1705, 348 1729" stroke="#4e8cb9" fill="none"/>
 <polygon points="351,1726 354,1737 346,1731 351,1726" stroke="#4e8cb9" fill="#4e8cb9"/>
 <polygon points="405,1586 333,1586 333,1622 405,1622 405,1586" stroke="#90c4e4" fill="none"/>
 <text x="341" y="1605" fill="#000000" font-family="Arial" font-size="9">mergeSort</text>
 <path d="M 182 737 C 206 850, 332 1437, 362 1575" stroke="#4e8cb9" fill="none"/>
 <polygon points="366,1574 364,1585 359,1576 366,1574" stroke="#4e8cb9" fill="#4e8cb9"/>
 <polygon points="784,2324 719,2324 719,2360 784,2360 784,2324" stroke="#90c4e4" fill="none"/>
 <text x="727" y="2343" fill="#000000" font-family="Arial" font-size="9">heapSort</text>
 <path d="M 179 737 C 190 913, 281 2295, 295 2310 C 353 2367, 606 2354, 708 2346" stroke="#4e8cb9" fill="none"/>
 <polygon points="707,2342 718,2345 708,2349 707,2342" stroke="#4e8cb9" fill="#4e8cb9"/>
 <polygon points="396,488 396,474 380,463 358,463 342,474 342,488 358,499 380,499 396,488" stroke="#c0c0c0" fill="none"/>
 <text x="358" y="482" fill="#000000" font-family="Arial" font-size="9">log2</text>
 <path d="M 204 717 C 222 714, 246 708, 259 692 C 315 629, 241 571, 295 508 C 305 497, 319 491, 332 487" stroke="#4e8cb9" fill="none"/>
 <polygon points="331,483 341,484 332,490 331,483" stroke="#4e8cb9" fill="#4e8cb9"/>
 <polygon points="399,1817 339,1817 339,1853 399,1853 399,1817" stroke="#90c4e4" fill="none"/>
 <text x="347" y="1836" fill="#000000" font-family="Arial" font-size="9">introsort</text>
 <path d="M 178 737 C 178 863, 186 1596, 295 1783 C 303 1797, 317 1808, 330 1816" stroke="#4e8cb9" fill="none"/>
 <polygon points="331,1814 338,1822 328,1820 331,1814" stroke="#4e8cb9" fill="#4e8cb9"/>
 <polygon points="577,701 513,701 513,737 577,737 577,701" stroke="#90c4e4" fill="none"/>
 <text x="521" y="720" fill="#000000" font-family="Arial" font-size="9">radixSort</text>
 <path d="M 204 719 C 267 719, 425 719, 502 719" stroke="#4e8cb9" fill="none"/>
 <polygon points="501,715 511,719 501,722 501,715" stroke="#4e8cb9" fill="#4e8cb9"/>
 <polygon points="396,963 342,963 342,999 396,999 396,963" stroke="#90c4e4" fill="none"/>
 <text x="350" y="982" fill="#000000" font-family="Arial" font-size="9">timSort</text>
 <path d="M 191 737 C 224 783, 310 901, 349 954" stroke="#4e8cb9" fill="none"/>
 <polygon points="352,951 355,962 346,956 352,951" stroke="#4e8cb9" fill="#4e8cb9"/>
 <polygon points="443,542 443,528 400,517 339,517 295,528 295,542 339,553 400,553 443,542" stroke="#c0c0c0" fill="none"/>
 <text x="323" y="536" fill="#000000" font-family="Arial" font-size="9">invalid_argument</text>
 <path d="M 204 717 C 222 714, 245 707, 259 692 C 301 649, 255 606, 295 562 C 299 559, 302 556, 306 553" stroke="#4e8cb9" fill="none"/>
 <polygon points="304,550 314,548 307,556 304,550" stroke="#4e8cb9" fill="#4e8cb9"/>
 <polygon points="798,723 704,723 704,759 798,759 798,723" stroke="#90c4e4" fill="none"/>
 <text x="712" y="742" fill="#000000" font-family="Arial" font-size="9">validateOutput</text>
 <path d="M 204 722 C 256 728, 377 741, 479 746 C 537 749, 552 747, 610 746 C 637 746, 668 744, 693 744" stroke="#4e8cb9" fill="none"/>
 <polygon points="693,740 703,743 693,747 693,740" stroke="#4e8cb9" fill="#4e8cb9"/>
 <polygon points="418,571 321,571 321,607 418,607 418,571" stroke="#90c4e4" fill="none"/>
 <text x="329" y="590" fill="#000000" font-family="Arial" font-size="9">finishCollection</text>
 <path d="M 204 716 C 221 712, 244 705, 259 692 C 286 669, 270 645, 295 621 C 300 617, 305 613, 311 610" stroke="#4e8cb9" fill="none"/>
 <polygon points="309,606 319,604 312,612 309,606" stroke="#4e8cb9" fill="#4e8cb9"/>
 <path d="M 767 296 C 791 325, 841 383, 893 422 C 900 428, 908 433, 916 437" stroke="#4e8cb9" fill="none"/>
 <polygon points="918,435 925,442 915,441 918,435" stroke="#4e8cb9" fill="#4e8cb9"/>
 <polygon points="1169,574 1048,574 1048,610 1169,610 1169,574" stroke="#90c4e4" fill="none"/>
 <text x="1056" y="593" fill="#000000" font-family="Arial" font-size="9">ValidationException</text>
 <path d="M 785 296 C 813 312, 855 334, 893 351 C 944 374, 975 352, 1012 394 C 1063 453, 999 504, 1048 565 C 1048 565, 1048 566, 1049 566" stroke="#4e8cb9" fill="none"/>
 <polygon points="1051,563 1056,573 1046,568 1051,563" stroke="#4e8cb9" fill="#4e8cb9"/>
 <path d="M 794 269 C 849 259, 948 250, 1012 297 C 1047 323, 1085 451, 1100 509" stroke="#4e8cb9" fill="none"/>
 <polygon points="1104,508 1103,519 1097,510 1104,508" stroke="#4e8cb9" fill="#4e8cb9"/>
 <path d="M 770 296 C 795 322, 843 368, 893 394 C 941 419, 977 384, 1012 427 C 1048 472, 1036 889, 1048 946 C 1058 997, 1081 1053, 1095 1086" stroke="#4e8cb9" fill="none"/>
 <polygon points="1098,1084 1099,1095 1092,1087 1098,1084" stroke="#4e8cb9" fill="#4e8cb9"/>
 <polygon points="1011,52 894,52 894,88 1011,88 1011,52" stroke="#90c4e4" fill="none"/>
 <text x="902" y="71" fill="#000000" font-family="Arial" font-size="9">enforceConstraints</text>
 <path d="M 766 260 C 801 214, 889 100, 893 97 C 894 96, 895 95, 897 94" stroke="#4e8cb9" fill="none"/>
 <polygon points="894,91 905,88 898,97 894,91" stroke="#4e8cb9" fill="#4e8cb9"/>
 <polygon points="1012,131 1012,117 977,106 928,106 893,117 893,131 928,142 977,142 1012,131" stroke="#c0c0c0" fill="none"/>
 <text x="917" y="125" fill="#000000" font-family="Arial" font-size="9">operator bool</text>
 <path d="M 769 260 C 794 233, 843 184, 893 151 C 897 148, 901 146, 905 143" stroke="#4e8cb9" fill="none"/>
 <polygon points="904,140 914,139 907,146 904,140" stroke="#4e8cb9" fill="#4e8cb9"/>
 <polygon points="999,185 999,171 972,160 933,160 905,171 905,185 933,196 972,196 999,185" stroke="#c0c0c0" fill="none"/>
 <text x="926" y="179" fill="#000000" font-family="Arial" font-size="9">operator()</text>
 <path d="M 787 260 C 815 244, 856 223, 893 205 C 899 202, 905 199, 911 196" stroke="#4e8cb9" fill="none"/>
 <polygon points="909,193 920,192 912,199 909,193" stroke="#4e8cb9" fill="#4e8cb9"/>
 <polygon points="1003,214 901,214 901,250 1003,250 1003,214" stroke="#90c4e4" fill="none"/>
 <text x="909" y="233" fill="#000000" font-family="Arial" font-size="9">customValidator</text>
 <path d="M 794 268 C 822 262, 859 253, 891 246" stroke="#4e8cb9" fill="none"/>
 <polygon points="889,242 900,244 891,249 889,242" stroke="#4e8cb9" fill="#4e8cb9"/>
 <polygon points="1312,574 1205,574 1205,610 1312,610 1312,574" stroke="#90c4e4" fill="none"/>
 <text x="1213" y="593" fill="#000000" font-family="Arial" font-size="9">SortingException</text>
 <path d="M 1169 592 C 1177 592, 1185 592, 1193 592" stroke="#4e8cb9" fill="none"/>
 <polygon points="1193,588 1203,592 1193,595 1193,588" stroke="#4e8cb9" fill="#4e8cb9"/>
 <path d="M 1159 574 C 1163 571, 1166 568, 1169 565 C 1235 490, 1252 366, 1256 310" stroke="#4e8cb9" fill="none"/>
 <polygon points="1252,310 1257,300 1259,311 1252,310" stroke="#4e8cb9" fill="#4e8cb9"/>
 <path d="M 1004 88 C 1007 91, 1010 94, 1012 97 C 1071 183, 988 480, 1048 565 C 1048 565, 1048 566, 1048 566" stroke="#4e8cb9" fill="none"/>
 <polygon points="1050,563 1055,573 1045,568 1050,563" stroke="#4e8cb9" fill="#4e8cb9"/>
 <path d="M 1003 88 C 1006 91, 1009 94, 1012 97 C 1080 188, 1022 240, 1048 351 C 1061 408, 1083 474, 1097 510" stroke="#4e8cb9" fill="none"/>
 <polygon points="1100,508 1100,519 1094,511 1100,508" stroke="#4e8cb9" fill="#4e8cb9"/>
 <polygon points="1153,331 1153,317 1127,306 1090,306 1063,317 1063,331 1090,342 1127,342 1153,331" stroke="#c0c0c0" fill="none"/>
 <text x="1083" y="325" fill="#000000" font-family="Arial" font-size="9">operator*</text>
 <path d="M 1001 88 C 1005 91, 1009 94, 1012 97 C 1041 127, 1080 241, 1098 295" stroke="#4e8cb9" fill="none"/>
 <polygon points="1102,294 1101,305 1095,296 1102,294" stroke="#4e8cb9" fill="#4e8cb9"/>
 <polygon points="1135,77 1135,63 1119,52 1097,52 1081,63 1081,77 1097,88 1119,88 1135,77" stroke="#c0c0c0" fill="none"/>
 <text x="1098" y="71" fill="#000000" font-family="Arial" font-size="9">min</text>
 <path d="M 1011 70 C 1031 70, 1053 70, 1070 70" stroke="#4e8cb9" fill="none"/>
 <polygon points="1070,66 1080,70 1070,73 1070,66" stroke="#4e8cb9" fill="#4e8cb9"/>
 <polygon points="1135,131 1135,117 1119,106 1097,106 1081,117 1081,131 1097,142 1119,142 1135,131" stroke="#c0c0c0" fill="none"/>
 <text x="1097" y="125" fill="#000000" font-family="Arial" font-size="9">max</text>
 <path d="M 1006 88 C 1028 96, 1053 105, 1072 112" stroke="#4e8cb9" fill="none"/>
 <polygon points="1073,109 1081,115 1071,115 1073,109" stroke="#4e8cb9" fill="#4e8cb9"/>
 <polygon points="591,380 591,366 564,355 525,355 498,366 498,380 525,391 564,391 591,380" stroke="#c0c0c0" fill="none"/>
 <text x="519" y="374" fill="#000000" font-family="Arial" font-size="9">operator=</text>
 <path d="M 415 373 C 437 373, 464 373, 487 373" stroke="#4e8cb9" fill="none"/>
 <polygon points="487,369 497,373 487,376 487,369" stroke="#4e8cb9" fill="#4e8cb9"/>
 <path d="M 402 1763 C 417 1768, 433 1777, 443 1790 C 512 1884, 422 1948, 479 2050 C 526 2133, 556 2153, 646 2185 C 734 2216, 783 2243, 857 2185 C 885 2163, 931 1924, 946 1840" stroke="#4e8cb9" fill="none"/>
 <polygon points="943,1839 948,1830 950,1841 943,1839" stroke="#4e8cb9" fill="#4e8cb9"/>
 <path d="M 338 1738 C 333 1728, 343 1720, 369 1720 C 385 1720, 395 1723, 399 1727" stroke="#4e8cb9" fill="none"/>
 <polygon points="403,1726 401,1737 396,1728 403,1726" stroke="#4e8cb9" fill="#4e8cb9"/>
 <polygon points="596,1724 493,1724 493,1760 596,1760 596,1724" stroke="#90c4e4" fill="none"/>
 <text x="502" y="1743" fill="#000000" font-family="Arial" font-size="9">recordOperation</text>
 <path d="M 403 1753 C 425 1752, 455 1749, 482 1747" stroke="#4e8cb9" fill="none"/>
 <polygon points="482,1743 492,1746 482,1750 482,1743" stroke="#4e8cb9" fill="#4e8cb9"/>
 <polygon points="809,1112 693,1112 693,1148 809,1148 809,1112" stroke="#90c4e4" fill="none"/>
 <text x="701" y="1131" fill="#000000" font-family="Arial" font-size="9">checkPerformance</text>
 <path d="M 385 1738 C 402 1714, 430 1672, 443 1631 C 474 1533, 410 1247, 479 1172 C 530 1117, 620 1114, 682 1119" stroke="#4e8cb9" fill="none"/>
 <polygon points="682,1116 692,1120 682,1123 682,1116" stroke="#4e8cb9" fill="#4e8cb9"/>
 <polygon points="781,2232 722,2232 722,2268 781,2268 781,2232" stroke="#90c4e4" fill="none"/>
 <text x="730" y="2251" fill="#000000" font-family="Arial" font-size="9">partition</text>
 <path d="M 403 1763 C 417 1768, 434 1777, 443 1790 C 495 1864, 419 2129, 479 2196 C 510 2230, 644 2243, 711 2248" stroke="#4e8cb9" fill="none"/>
 <polygon points="711,2244 721,2249 711,2251 711,2244" stroke="#4e8cb9" fill="#4e8cb9"/>
 <polygon points="1003,874 901,874 901,910 1003,910 1003,874" stroke="#90c4e4" fill="none"/>
 <text x="909" y="893" fill="#000000" font-family="Arial" font-size="9">validatePartition</text>
 <path d="M 385 1738 C 402 1715, 430 1672, 443 1631 C 476 1525, 411 1220, 479 1132 C 517 1084, 559 1122, 610 1089 C 630 1076, 627 1064, 646 1049 C 730 985, 764 991, 857 940 C 873 931, 876 928, 893 919 C 895 918, 898 916, 900 915" stroke="#4e8cb9" fill="none"/>
 <polygon points="899,912 909,910 902,918 899,912" stroke="#4e8cb9" fill="#4e8cb9"/>
 <polygon points="606,2005 483,2005 483,2041 606,2041 606,2005" stroke="#90c4e4" fill="none"/>
 <text x="492" y="2024" fill="#000000" font-family="Arial" font-size="9">randomizedPartition</text>
 <path d="M 402 1765 C 416 1771, 432 1779, 443 1790 C 501 1849, 528 1946, 538 1994" stroke="#4e8cb9" fill="none"/>
 <polygon points="542,1993 540,2004 535,1995 542,1993" stroke="#4e8cb9" fill="#4e8cb9"/>
 <polygon points="610,1778 479,1778 479,1814 610,1814 610,1778" stroke="#90c4e4" fill="none"/>
 <text x="488" y="1797" fill="#000000" font-family="Arial" font-size="9">handleSmallSubarray</text>
 <path d="M 403 1763 C 421 1768, 445 1773, 468 1779" stroke="#4e8cb9" fill="none"/>
 <polygon points="469,1775 478,1781 467,1782 469,1775" stroke="#4e8cb9" fill="#4e8cb9"/>
 <polygon points="1007,1188 897,1188 897,1224 1007,1224 1007,1188" stroke="#90c4e4" fill="none"/>
 <text x="905" y="1207" fill="#000000" font-family="Arial" font-size="9">enforceThreshold</text>
 <path d="M 810 1146 C 825 1151, 842 1156, 857 1162 C 873 1168, 890 1176, 905 1183" stroke="#4e8cb9" fill="none"/>
 <polygon points="906,1180 914,1188 903,1187 906,1180" stroke="#4e8cb9" fill="#4e8cb9"/>
 <path d="M 781 2249 C 805 2246, 837 2239, 857 2218 C 870 2204, 927 1931, 945 1840" stroke="#4e8cb9" fill="none"/>
 <polygon points="942,1839 948,1830 949,1841 942,1839" stroke="#4e8cb9" fill="#4e8cb9"/>
 <polygon points="989,2101 915,2101 915,2137 989,2137 989,2101" stroke="#90c4e4" fill="none"/>
 <text x="923" y="2120" fill="#000000" font-family="Arial" font-size="9">selectPivot</text>
 <path d="M 781 2247 C 804 2244, 835 2236, 857 2218 C 884 2195, 867 2171, 893 2146 C 896 2142, 901 2139, 905 2136" stroke="#4e8cb9" fill="none"/>
 <polygon points="903,2133 914,2131 907,2139 903,2133" stroke="#4e8cb9" fill="#4e8cb9"/>
 <polygon points="1010,1724 895,1724 895,1760 1010,1760 1010,1724" stroke="#90c4e4" fill="none"/>
 <text x="903" y="1743" fill="#000000" font-family="Arial" font-size="9">recordComparison</text>
 <path d="M 781 2240 C 806 2231, 840 2213, 857 2185 C 950 2033, 804 1939, 893 1784 C 896 1778, 901 1772, 907 1767" stroke="#4e8cb9" fill="none"/>
 <polygon points="904,1764 914,1760 909,1769 904,1764" stroke="#4e8cb9" fill="#4e8cb9"/>
 <polygon points="999,1435 999,1421 971,1410 933,1410 906,1421 906,1435 933,1446 971,1446 999,1435" stroke="#c0c0c0" fill="none"/>
 <text x="926" y="1429" fill="#000000" font-family="Arial" font-size="9">operator[]</text>
 <path d="M 781 2241 C 806 2231, 840 2213, 857 2185 C 923 2073, 868 1728, 893 1600 C 903 1548, 925 1490, 939 1456" stroke="#4e8cb9" fill="none"/>
 <polygon points="936,1455 943,1447 943,1458 936,1455" stroke="#4e8cb9" fill="#4e8cb9"/>
 <polygon points="999,2301 905,2301 905,2337 999,2337 999,2301" stroke="#90c4e4" fill="none"/>
 <text x="913" y="2320" fill="#000000" font-family="Arial" font-size="9">swapElements</text>
 <path d="M 781 2260 C 811 2270, 858 2287, 895 2299" stroke="#4e8cb9" fill="none"/>
 <polygon points="896,2296 904,2303 893,2303 896,2296" stroke="#4e8cb9" fill="#4e8cb9"/>
 <polygon points="992,2155 912,2155 912,2191 992,2191 992,2155" stroke="#90c4e4" fill="none"/>
 <text x="920" y="2174" fill="#000000" font-family="Arial" font-size="9">recordSwap</text>
 <path d="M 781 2242 C 802 2237, 832 2228, 857 2218 C 873 2212, 891 2204, 906 2196" stroke="#4e8cb9" fill="none"/>
 <polygon points="904,2193 915,2191 907,2199 904,2193" stroke="#4e8cb9" fill="#4e8cb9"/>
 <path d="M 1002 874 C 1005 871, 1009 868, 1012 865 C 1077 794, 1098 675, 1105 621" stroke="#4e8cb9" fill="none"/>
 <polygon points="1101,621 1106,611 1108,622 1101,621" stroke="#4e8cb9" fill="#4e8cb9"/>
 <path d="M 1003 874 C 1007 871, 1009 868, 1012 865 C 1091 756, 968 673, 1048 565 C 1050 561, 1053 558, 1057 556" stroke="#4e8cb9" fill="none"/>
 <polygon points="1055,552 1065,550 1059,558 1055,552" stroke="#4e8cb9" fill="#4e8cb9"/>
 <polygon points="1155,926 1155,912 1127,901 1089,901 1062,912 1062,926 1089,937 1127,937 1155,926" stroke="#c0c0c0" fill="none"/>
 <text x="1082" y="920" fill="#000000" font-family="Arial" font-size="9">operator[]</text>
 <path d="M 1004 901 C 1019 904, 1036 906, 1051 909" stroke="#4e8cb9" fill="none"/>
 <polygon points="1052,906 1061,911 1050,913 1052,906" stroke="#4e8cb9" fill="#4e8cb9"/>
 <path d="M 554 2041 C 568 2074, 602 2141, 646 2185 C 665 2204, 691 2220, 712 2232" stroke="#4e8cb9" fill="none"/>
 <polygon points="714,2229 721,2237 710,2235 714,2229" stroke="#4e8cb9" fill="#4e8cb9"/>
 <path d="M 548 2041 C 557 2107, 592 2328, 646 2369 C 721 2425, 766 2392, 857 2369 C 878 2364, 899 2353, 916 2343" stroke="#4e8cb9" fill="none"/>
 <polygon points="914,2340 924,2337 917,2346 914,2340" stroke="#4e8cb9" fill="#4e8cb9"/>
 <polygon points="818,2165 818,2151 779,2140 724,2140 684,2151 684,2165 724,2176 779,2176 818,2165" stroke="#c0c0c0" fill="none"/>
 <text x="710" y="2159" fill="#000000" font-family="Arial" font-size="9">random_device</text>
 <path d="M 558 2041 C 574 2066, 607 2108, 646 2131 C 656 2137, 668 2142, 680 2146" stroke="#4e8cb9" fill="none"/>
 <polygon points="681,2142 689,2149 679,2149 681,2142" stroke="#4e8cb9" fill="#4e8cb9"/>
 <polygon points="857,1841 857,1827 795,1816 708,1816 646,1827 646,1841 708,1852 795,1852 857,1841" stroke="#c0c0c0" fill="none"/>
 <text x="682" y="1835" fill="#000000" font-family="Arial" font-size="9">mersenne_twister_engine</text>
 <path d="M 552 2005 C 564 1971, 595 1899, 646 1861 C 652 1857, 657 1854, 664 1851" stroke="#4e8cb9" fill="none"/>
 <polygon points="662,1847 673,1847 665,1854 662,1847" stroke="#4e8cb9" fill="#4e8cb9"/>
 <polygon points="799,1895 799,1881 771,1870 732,1870 704,1881 704,1895 732,1906 771,1906 799,1895" stroke="#c0c0c0" fill="none"/>
 <text x="725" y="1889" fill="#000000" font-family="Arial" font-size="9">operator()</text>
 <path d="M 558 2005 C 574 1980, 607 1938, 646 1915 C 660 1906, 677 1901, 693 1897" stroke="#4e8cb9" fill="none"/>
 <polygon points="692,1893 703,1894 694,1900 692,1893" stroke="#4e8cb9" fill="#4e8cb9"/>
 <polygon points="778,1924 724,1924 724,1960 778,1960 778,1924" stroke="#90c4e4" fill="none"/>
 <text x="746" y="1943" fill="#000000" font-family="Arial" font-size="9">rd</text>
 <path d="M 575 2005 C 595 1993, 621 1979, 646 1969 C 668 1960, 693 1954, 714 1949" stroke="#4e8cb9" fill="none"/>
 <polygon points="713,1946 723,1947 714,1953 713,1946" stroke="#4e8cb9" fill="#4e8cb9"/>
 <polygon points="847,2003 847,1989 791,1978 712,1978 656,1989 656,2003 712,2014 791,2014 847,2003" stroke="#c0c0c0" fill="none"/>
 <text x="689" y="1997" fill="#000000" font-family="Arial" font-size="9">uniform_int_distribution</text>
 <path d="M 607 2015 C 623 2013, 641 2010, 659 2008" stroke="#4e8cb9" fill="none"/>
 <polygon points="659,2004 669,2007 660,2011 659,2004" stroke="#4e8cb9" fill="#4e8cb9"/>
 <polygon points="799,2057 799,2043 771,2032 732,2032 704,2043 704,2057 732,2068 771,2068 799,2057" stroke="#c0c0c0" fill="none"/>
 <text x="725" y="2051" fill="#000000" font-family="Arial" font-size="9">operator()</text>
 <path d="M 607 2031 C 634 2035, 666 2039, 693 2042" stroke="#4e8cb9" fill="none"/>
 <polygon points="693,2039 703,2044 692,2046 693,2039" stroke="#4e8cb9" fill="#4e8cb9"/>
 <polygon points="778,2086 724,2086 724,2122 778,2122 778,2086" stroke="#90c4e4" fill="none"/>
 <text x="743" y="2105" fill="#000000" font-family="Arial" font-size="9">dis</text>
 <path d="M 575 2041 C 595 2053, 621 2067, 646 2077 C 668 2086, 693 2092, 714 2097" stroke="#4e8cb9" fill="none"/>
 <polygon points="714,2093 723,2099 713,2100 714,2093" stroke="#4e8cb9" fill="#4e8cb9"/>
 <polygon points="793,1724 709,1724 709,1760 793,1760 793,1724" stroke="#90c4e4" fill="none"/>
 <text x="717" y="1743" fill="#000000" font-family="Arial" font-size="9">insertionSort</text>
 <path d="M 610 1779 C 639 1771, 672 1763, 699 1756" stroke="#4e8cb9" fill="none"/>
 <polygon points="698,1752 708,1753 699,1759 698,1752" stroke="#4e8cb9" fill="#4e8cb9"/>
 <path d="M 391 1622 C 411 1640, 445 1665, 479 1677 C 638 1734, 712 1628, 857 1715 C 881 1730, 873 1748, 893 1769 C 900 1776, 908 1783, 916 1789" stroke="#4e8cb9" fill="none"/>
 <polygon points="918,1786 924,1795 914,1792 918,1786" stroke="#4e8cb9" fill="#4e8cb9"/>
 <path d="M 386 1622 C 406 1645, 442 1684, 479 1710 C 483 1713, 488 1716, 492 1718" stroke="#4e8cb9" fill="none"/>
 <polygon points="494,1716 501,1724 490,1722 494,1716" stroke="#4e8cb9" fill="#4e8cb9"/>
 <path d="M 338 1586 C 333 1576, 343 1568, 369 1568 C 385 1568, 395 1571, 399 1575" stroke="#4e8cb9" fill="none"/>
 <polygon points="403,1574 401,1585 396,1576 403,1574" stroke="#4e8cb9" fill="#4e8cb9"/>
 <polygon points="778,1632 724,1632 724,1668 778,1668 778,1632" stroke="#90c4e4" fill="none"/>
 <text x="734" y="1651" fill="#000000" font-family="Arial" font-size="9">merge</text>
 <path d="M 406 1606 C 453 1608, 538 1613, 610 1623 C 645 1628, 685 1636, 713 1642" stroke="#4e8cb9" fill="none"/>
 <polygon points="714,1638 723,1644 712,1645 714,1638" stroke="#4e8cb9" fill="#4e8cb9"/>
 <polygon points="998,820 906,820 906,856 998,856 998,820" stroke="#90c4e4" fill="none"/>
 <text x="914" y="839" fill="#000000" font-family="Arial" font-size="9">validateMerge</text>
 <path d="M 372 1586 C 381 1503, 420 1173, 479 1089 C 519 1033, 563 1058, 610 1008 C 634 983, 620 962, 646 940 C 684 908, 818 871, 895 851" stroke="#4e8cb9" fill="none"/>
 <polygon points="894,848 905,849 896,855 894,848" stroke="#4e8cb9" fill="#4e8cb9"/>
 <polygon points="596,1632 494,1632 494,1668 596,1668 596,1632" stroke="#90c4e4" fill="none"/>
 <text x="502" y="1651" fill="#000000" font-family="Arial" font-size="9">optimizedMerge</text>
 <path d="M 406 1613 C 428 1619, 457 1627, 483 1634" stroke="#4e8cb9" fill="none"/>
 <polygon points="484,1631 492,1637 482,1637 484,1631" stroke="#4e8cb9" fill="#4e8cb9"/>
 <polygon points="590,1540 500,1540 500,1576 590,1576 590,1540" stroke="#90c4e4" fill="none"/>
 <text x="508" y="1559" fill="#000000" font-family="Arial" font-size="9">inPlaceMerge</text>
 <path d="M 406 1595 C 430 1588, 462 1580, 489 1573" stroke="#4e8cb9" fill="none"/>
 <polygon points="488,1569 498,1570 489,1576 488,1569" stroke="#4e8cb9" fill="#4e8cb9"/>
 <path d="M 779 1652 C 802 1655, 835 1662, 857 1682 C 888 1710, 867 1736, 893 1769 C 899 1777, 907 1784, 915 1790" stroke="#4e8cb9" fill="none"/>
 <polygon points="916,1787 923,1796 912,1793 916,1787" stroke="#4e8cb9" fill="#4e8cb9"/>
 <path d="M 779 1656 C 800 1661, 831 1669, 857 1682 C 874 1691, 876 1697, 893 1708 C 898 1711, 903 1715, 909 1718" stroke="#4e8cb9" fill="none"/>
 <polygon points="910,1715 917,1723 907,1721 910,1715" stroke="#4e8cb9" fill="#4e8cb9"/>
 <path d="M 779 1648 C 802 1645, 835 1637, 857 1618 C 907 1575, 933 1499, 945 1457" stroke="#4e8cb9" fill="none"/>
 <polygon points="941,1456 947,1447 948,1458 941,1456" stroke="#4e8cb9" fill="#4e8cb9"/>
 <polygon points="1012,1663 893,1663 893,1699 1012,1699 1012,1663" stroke="#90c4e4" fill="none"/>
 <text x="901" y="1682" fill="#000000" font-family="Arial" font-size="9">allocateTempBuffer</text>
 <path d="M 779 1654 C 805 1658, 846 1665, 882 1670" stroke="#4e8cb9" fill="none"/>
 <polygon points="882,1667 891,1672 881,1674 882,1667" stroke="#4e8cb9" fill="#4e8cb9"/>
 <polygon points="987,1609 918,1609 918,1645 987,1645 987,1609" stroke="#90c4e4" fill="none"/>
 <text x="926" y="1628" fill="#000000" font-family="Arial" font-size="9">copyBack</text>
 <path d="M 779 1647 C 811 1643, 867 1637, 907 1632" stroke="#4e8cb9" fill="none"/>
 <polygon points="906,1629 916,1631 907,1636 906,1629" stroke="#4e8cb9" fill="#4e8cb9"/>
 <path d="M 779 1649 C 803 1647, 837 1640, 857 1618 C 921 1544, 833 1479, 893 1401 C 897 1396, 902 1392, 907 1388" stroke="#4e8cb9" fill="none"/>
 <polygon points="906,1385 916,1383 909,1391 906,1385" stroke="#4e8cb9" fill="#4e8cb9"/>
 <path d="M 995 820 C 1001 816, 1007 811, 1012 806 C 1062 751, 1089 665, 1101 621" stroke="#4e8cb9" fill="none"/>
 <polygon points="1098,620 1103,611 1104,622 1098,620" stroke="#4e8cb9" fill="#4e8cb9"/>
 <path d="M 998 820 C 1003 816, 1008 811, 1012 806 C 1074 717, 982 651, 1048 565 C 1050 562, 1054 558, 1057 556" stroke="#4e8cb9" fill="none"/>
 <polygon points="1055,552 1065,550 1059,558 1055,552" stroke="#4e8cb9" fill="#4e8cb9"/>
 <path d="M 994 856 C 1000 859, 1006 862, 1012 865 C 1032 875, 1054 888, 1072 898" stroke="#4e8cb9" fill="none"/>
 <polygon points="1073,895 1080,904 1070,902 1073,895" stroke="#4e8cb9" fill="#4e8cb9"/>
 <path d="M 596 1650 C 632 1650, 680 1650, 713 1650" stroke="#4e8cb9" fill="none"/>
 <polygon points="713,1646 723,1650 713,1653 713,1646" stroke="#4e8cb9" fill="#4e8cb9"/>
 <path d="M 586 1576 C 594 1581, 603 1585, 610 1590 C 627 1601, 628 1609, 646 1618 C 667 1629, 693 1637, 714 1642" stroke="#4e8cb9" fill="none"/>
 <polygon points="714,1639 723,1645 713,1646 714,1639" stroke="#4e8cb9" fill="#4e8cb9"/>
 <path d="M 784 2332 C 809 2322, 841 2304, 857 2277 C 906 2190, 838 565, 893 481 C 897 475, 902 470, 909 466" stroke="#4e8cb9" fill="none"/>
 <polygon points="907,463 917,462 910,469 907,463" stroke="#4e8cb9" fill="#4e8cb9"/>
 <path d="M 784 2339 C 807 2335, 836 2327, 857 2310 C 884 2287, 866 2261, 893 2238 C 935 2202, 977 2243, 1012 2200 C 1080 2115, 1103 1306, 1107 1143" stroke="#4e8cb9" fill="none"/>
 <polygon points="1103,1143 1107,1133 1110,1143 1103,1143" stroke="#4e8cb9" fill="#4e8cb9"/>
 <path d="M 784 2341 C 808 2338, 839 2331, 857 2310 C 921 2236, 875 2189, 893 2092 C 910 2000, 934 1891, 945 1840" stroke="#4e8cb9" fill="none"/>
 <polygon points="942,1839 947,1830 948,1841 942,1839" stroke="#4e8cb9" fill="#4e8cb9"/>
 <path d="M 784 2338 C 814 2335, 859 2330, 894 2326" stroke="#4e8cb9" fill="none"/>
 <polygon points="894,2322 904,2324 894,2329 894,2322" stroke="#4e8cb9" fill="#4e8cb9"/>
 <path d="M 784 2340 C 807 2337, 837 2329, 857 2310 C 892 2276, 861 2243, 893 2205 C 896 2201, 899 2198, 903 2195" stroke="#4e8cb9" fill="none"/>
 <polygon points="901,2192 911,2189 905,2198 901,2192" stroke="#4e8cb9" fill="#4e8cb9"/>
 <polygon points="999,2247 906,2247 906,2283 999,2283 999,2247" stroke="#90c4e4" fill="none"/>
 <text x="914" y="2266" fill="#000000" font-family="Arial" font-size="9">buildMaxHeap</text>
 <path d="M 784 2334 C 805 2328, 833 2319, 857 2310 C 873 2303, 877 2300, 893 2292 C 895 2291, 898 2289, 901 2288" stroke="#4e8cb9" fill="none"/>
 <polygon points="899,2285 910,2283 902,2291 899,2285" stroke="#4e8cb9" fill="#4e8cb9"/>
 <polygon points="1148,2256 1068,2256 1068,2292 1148,2292 1148,2256" stroke="#90c4e4" fill="none"/>
 <text x="1076" y="2275" fill="#000000" font-family="Arial" font-size="9">maxHeapify</text>
 <path d="M 784 2349 C 834 2359, 933 2372, 1012 2346 C 1015 2345, 1049 2319, 1075 2299" stroke="#4e8cb9" fill="none"/>
 <polygon points="1073,2296 1083,2292 1077,2301 1073,2296" stroke="#4e8cb9" fill="#4e8cb9"/>
 <polygon points="995,2393 909,2393 909,2429 995,2429 995,2393" stroke="#90c4e4" fill="none"/>
 <text x="917" y="2412" fill="#000000" font-family="Arial" font-size="9">validateHeap</text>
 <path d="M 784 2353 C 815 2364, 863 2380, 899 2393" stroke="#4e8cb9" fill="none"/>
 <polygon points="900,2390 908,2396 897,2396 900,2390" stroke="#4e8cb9" fill="#4e8cb9"/>
 <path d="M 998 2247 C 1004 2243, 1008 2238, 1012 2233 C 1073 2139, 1101 1309, 1106 1143" stroke="#4e8cb9" fill="none"/>
 <polygon points="1103,1143 1107,1133 1110,1143 1103,1143" stroke="#4e8cb9" fill="#4e8cb9"/>
 <path d="M 999 2268 C 1017 2269, 1038 2270, 1057 2271" stroke="#4e8cb9" fill="none"/>
 <polygon points="1057,2268 1067,2272 1057,2275 1057,2268" stroke="#4e8cb9" fill="#4e8cb9"/>
 <path d="M 976 2393 C 989 2381, 1004 2364, 1012 2346 C 1071 2196, 1030 1053, 1048 892 C 1059 791, 1087 674, 1100 621" stroke="#4e8cb9" fill="none"/>
 <polygon points="1097,620 1102,611 1103,622 1097,620" stroke="#4e8cb9" fill="#4e8cb9"/>
 <path d="M 976 2393 C 989 2381, 1004 2364, 1012 2346 C 1064 2216, 1022 1225, 1048 1087 C 1057 1036, 1080 980, 1094 947" stroke="#4e8cb9" fill="none"/>
 <polygon points="1091,946 1099,938 1098,949 1091,946" stroke="#4e8cb9" fill="#4e8cb9"/>
 <polygon points="1138,2491 1078,2491 1078,2527 1138,2527 1138,2491" stroke="#90c4e4" fill="none"/>
 <text x="1086" y="2510" fill="#000000" font-family="Arial" font-size="9">leftChild</text>
 <path d="M 975 2429 C 993 2445, 1021 2466, 1048 2482 C 1054 2486, 1061 2489, 1068 2493" stroke="#4e8cb9" fill="none"/>
 <polygon points="1069,2490 1077,2497 1066,2496 1069,2490" stroke="#4e8cb9" fill="#4e8cb9"/>
 <polygon points="1142,2329 1075,2329 1075,2365 1142,2365 1142,2329" stroke="#90c4e4" fill="none"/>
 <text x="1083" y="2348" fill="#000000" font-family="Arial" font-size="9">rightChild</text>
 <path d="M 996 2393 C 1017 2384, 1043 2374, 1065 2365" stroke="#4e8cb9" fill="none"/>
 <polygon points="1063,2361 1074,2361 1066,2368 1063,2361" stroke="#4e8cb9" fill="#4e8cb9"/>
 <polygon points="1155,2408 1155,2394 1127,2383 1089,2383 1062,2394 1062,2408 1089,2419 1127,2419 1155,2408" stroke="#c0c0c0" fill="none"/>
 <text x="1082" y="2402" fill="#000000" font-family="Arial" font-size="9">operator+</text>
 <path d="M 996 2408 C 1013 2407, 1032 2406, 1051 2405" stroke="#4e8cb9" fill="none"/>
 <polygon points="1050,2401 1060,2404 1051,2408 1050,2401" stroke="#4e8cb9" fill="#4e8cb9"/>
 <polygon points="1151,2462 1151,2448 1126,2437 1091,2437 1066,2448 1066,2462 1091,2473 1126,2473 1151,2462" stroke="#c0c0c0" fill="none"/>
 <text x="1085" y="2456" fill="#000000" font-family="Arial" font-size="9">to_string</text>
 <path d="M 996 2423 C 1016 2429, 1040 2436, 1061 2442" stroke="#4e8cb9" fill="none"/>
 <polygon points="1062,2439 1070,2445 1060,2445 1062,2439" stroke="#4e8cb9" fill="#4e8cb9"/>
 <path d="M 400 1842 C 421 1846, 452 1852, 479 1854 C 537 1859, 558 1880, 610 1854 C 634 1842, 623 1819, 646 1807 C 730 1766, 763 1805, 857 1807 C 868 1807, 880 1808, 892 1808" stroke="#4e8cb9" fill="none"/>
 <polygon points="892,1805 902,1809 892,1812 892,1805" stroke="#4e8cb9" fill="#4e8cb9"/>
 <path d="M 398 1817 C 419 1803, 451 1784, 479 1769 C 482 1768, 485 1766, 488 1765" stroke="#4e8cb9" fill="none"/>
 <polygon points="486,1761 496,1760 489,1768 486,1761" stroke="#4e8cb9" fill="#4e8cb9"/>
 <path d="M 373 1853 C 382 1925, 418 2184, 479 2234 C 545 2288, 653 2274, 711 2261" stroke="#4e8cb9" fill="none"/>
 <polygon points="710,2257 721,2258 712,2264 710,2257" stroke="#4e8cb9" fill="#4e8cb9"/>
 <path d="M 400 1841 C 447 1850, 542 1860, 610 1823 C 634 1810, 624 1790, 646 1774 C 662 1763, 681 1756, 699 1751" stroke="#4e8cb9" fill="none"/>
 <polygon points="698,1747 708,1748 699,1754 698,1747" stroke="#4e8cb9" fill="#4e8cb9"/>
 <path d="M 339 1819 C 331 1809, 341 1799, 369 1799 C 387 1799, 397 1803, 401 1808" stroke="#4e8cb9" fill="none"/>
 <polygon points="404,1809 400,1818 397,1808 404,1809" stroke="#4e8cb9" fill="#4e8cb9"/>
 <polygon points="595,1440 494,1440 494,1476 595,1476 595,1440" stroke="#90c4e4" fill="none"/>
 <text x="503" y="1459" fill="#000000" font-family="Arial" font-size="9">heapSortRange</text>
 <path d="M 400 1821 C 415 1813, 433 1800, 443 1783 C 502 1686, 432 1634, 479 1531 C 487 1513, 501 1497, 514 1484" stroke="#4e8cb9" fill="none"/>
 <polygon points="511,1482 521,1477 516,1487 511,1482" stroke="#4e8cb9" fill="#4e8cb9"/>
 <path d="M 563 1440 C 582 1421, 614 1392, 646 1376 C 796 1301, 879 1385, 1012 1283 C 1059 1247, 1086 1181, 1099 1143" stroke="#4e8cb9" fill="none"/>
 <polygon points="1096,1142 1102,1133 1102,1144 1096,1142" stroke="#4e8cb9" fill="#4e8cb9"/>
 <path d="M 588 1440 C 606 1433, 627 1426, 646 1423 C 732 1408, 833 1415, 895 1421" stroke="#4e8cb9" fill="none"/>
 <polygon points="895,1418 904,1422 894,1424 895,1418" stroke="#4e8cb9" fill="#4e8cb9"/>
 <path d="M 573 1440 C 593 1428, 620 1413, 646 1405 C 734 1378, 842 1374, 903 1373" stroke="#4e8cb9" fill="none"/>
 <polygon points="903,1370 913,1373 903,1377 903,1370" stroke="#4e8cb9" fill="#4e8cb9"/>
 <path d="M 569 1476 C 583 1490, 601 1509, 610 1531 C 673 1685, 562 2134, 646 2277 C 660 2300, 686 2317, 708 2327" stroke="#4e8cb9" fill="none"/>
 <polygon points="710,2324 717,2331 707,2331 710,2324" stroke="#4e8cb9" fill="#4e8cb9"/>
 <polygon points="785,1457 785,1443 765,1432 738,1432 718,1443 718,1457 738,1468 765,1468 785,1457" stroke="#c0c0c0" fill="none"/>
 <text x="735" y="1451" fill="#000000" font-family="Arial" font-size="9">vector</text>
 <path d="M 595 1456 C 630 1455, 674 1453, 707 1452" stroke="#4e8cb9" fill="none"/>
 <polygon points="707,1448 717,1451 707,1455 707,1448" stroke="#4e8cb9" fill="#4e8cb9"/>
 <polygon points="798,1511 798,1497 771,1486 732,1486 705,1497 705,1511 732,1522 771,1522 798,1511" stroke="#c0c0c0" fill="none"/>
 <text x="725" y="1505" fill="#000000" font-family="Arial" font-size="9">operator+</text>
 <path d="M 595 1469 C 627 1476, 667 1485, 698 1492" stroke="#4e8cb9" fill="none"/>
 <polygon points="699,1489 708,1495 697,1496 699,1489" stroke="#4e8cb9" fill="#4e8cb9"/>
 <polygon points="783,1565 783,1551 764,1540 738,1540 720,1551 720,1565 738,1576 764,1576 783,1565" stroke="#c0c0c0" fill="none"/>
 <text x="736" y="1559" fill="#000000" font-family="Arial" font-size="9">begin</text>
 <path d="M 578 1476 C 588 1483, 600 1490, 610 1498 C 627 1511, 627 1521, 646 1531 C 666 1542, 689 1548, 709 1552" stroke="#4e8cb9" fill="none"/>
 <polygon points="710,1549 719,1554 708,1556 710,1549" stroke="#4e8cb9" fill="#4e8cb9"/>
 <path d="M 577 704 C 596 695, 622 683, 646 676 C 737 648, 788 699, 857 633 C 907 585, 849 535, 893 481 C 897 475, 904 471, 910 467" stroke="#4e8cb9" fill="none"/>
 <polygon points="908,464 919,462 911,470 908,464" stroke="#4e8cb9" fill="#4e8cb9"/>
 <path d="M 556 737 C 571 764, 597 815, 610 862 C 646 989, 595 1035, 646 1157 C 704 1296, 800 1283, 857 1423 C 915 1566, 815 1635, 893 1769 C 898 1777, 905 1785, 913 1791" stroke="#4e8cb9" fill="none"/>
 <polygon points="914,1788 920,1796 910,1794 914,1788" stroke="#4e8cb9" fill="#4e8cb9"/>
 <path d="M 556 737 C 570 764, 596 815, 610 862 C 641 966, 574 1023, 646 1103 C 656 1114, 669 1120, 682 1124" stroke="#4e8cb9" fill="none"/>
 <polygon points="683,1121 692,1127 681,1128 683,1121" stroke="#4e8cb9" fill="#4e8cb9"/>
 <polygon points="1010,306 895,306 895,342 1010,342 1010,306" stroke="#90c4e4" fill="none"/>
 <text x="903" y="325" fill="#000000" font-family="Arial" font-size="9">validateRadixInput</text>
 <path d="M 564 701 C 630 637, 849 424, 925 350" stroke="#4e8cb9" fill="none"/>
 <polygon points="922,348 932,343 927,353 922,348" stroke="#4e8cb9" fill="#4e8cb9"/>
 <polygon points="980,490 924,490 924,526 980,526 980,490" stroke="#90c4e4" fill="none"/>
 <text x="932" y="509" fill="#000000" font-family="Arial" font-size="9">getMax</text>
 <path d="M 577 716 C 652 709, 836 689, 857 671 C 900 633, 858 592, 893 546 C 899 538, 907 531, 915 526" stroke="#4e8cb9" fill="none"/>
 <polygon points="913,523 923,520 916,529 913,523" stroke="#4e8cb9" fill="#4e8cb9"/>
 <polygon points="793,777 709,777 709,813 793,813 793,777" stroke="#90c4e4" fill="none"/>
 <text x="717" y="796" fill="#000000" font-family="Arial" font-size="9">countingSort</text>
 <path d="M 577 736 C 597 747, 622 759, 646 768 C 663 774, 682 780, 699 784" stroke="#4e8cb9" fill="none"/>
 <polygon points="699,781 708,786 697,787 699,781" stroke="#4e8cb9" fill="#4e8cb9"/>
 <path d="M 998 342 C 1003 346, 1008 351, 1012 356 C 1067 433, 990 490, 1048 565 C 1048 565, 1048 566, 1049 566" stroke="#4e8cb9" fill="none"/>
 <polygon points="1051,563 1055,573 1046,568 1051,563" stroke="#4e8cb9" fill="#4e8cb9"/>
 <path d="M 994 342 C 1001 346, 1007 351, 1012 356 C 1056 401, 1085 471, 1098 509" stroke="#4e8cb9" fill="none"/>
 <polygon points="1102,508 1102,519 1095,510 1102,508" stroke="#4e8cb9" fill="#4e8cb9"/>
 <path d="M 1010 324 C 1024 324, 1039 324, 1052 324" stroke="#4e8cb9" fill="none"/>
 <polygon points="1052,320 1062,324 1052,327 1052,320" stroke="#4e8cb9" fill="#4e8cb9"/>
 <path d="M 981 499 C 991 495, 1003 489, 1012 481 C 1053 445, 1081 387, 1096 352" stroke="#4e8cb9" fill="none"/>
 <polygon points="1093,351 1100,343 1100,354 1093,351" stroke="#4e8cb9" fill="#4e8cb9"/>
 <path d="M 965 526 C 978 546, 998 580, 1012 611 C 1055 710, 1087 835, 1101 890" stroke="#4e8cb9" fill="none"/>
 <polygon points="1104,889 1103,900 1097,891 1104,889" stroke="#4e8cb9" fill="#4e8cb9"/>
 <path d="M 762 813 C 782 849, 831 928, 893 973 C 938 1006, 964 986, 1012 1016 C 1042 1036, 1070 1067, 1088 1089" stroke="#4e8cb9" fill="none"/>
 <polygon points="1091,1086 1095,1096 1086,1090 1091,1086" stroke="#4e8cb9" fill="#4e8cb9"/>
 <path d="M 762 813 C 783 855, 834 957, 857 1049 C 876 1125, 847 1337, 893 1401 C 896 1405, 900 1409, 904 1412" stroke="#4e8cb9" fill="none"/>
 <polygon points="905,1409 912,1417 902,1415 905,1409" stroke="#4e8cb9" fill="#4e8cb9"/>
 <path d="M 761 813 C 781 855, 829 958, 857 1049 C 881 1129, 869 1153, 893 1233 C 905 1273, 924 1318, 938 1346" stroke="#4e8cb9" fill="none"/>
 <polygon points="941,1344 942,1355 935,1347 941,1344" stroke="#4e8cb9" fill="#4e8cb9"/>
 <polygon points="986,645 986,631 966,620 938,620 919,631 919,645 938,656 966,656 986,645" stroke="#c0c0c0" fill="none"/>
 <text x="936" y="639" fill="#000000" font-family="Arial" font-size="9">vector</text>
 <path d="M 794 793 C 815 790, 840 784, 857 768 C 892 735, 860 701, 893 665 C 898 659, 904 655, 911 651" stroke="#4e8cb9" fill="none"/>
 <polygon points="909,648 920,647 912,654 909,648" stroke="#4e8cb9" fill="#4e8cb9"/>
 <polygon points="1011,674 893,674 893,710 1011,710 1011,674" stroke="#90c4e4" fill="none"/>
 <text x="901" y="693" fill="#000000" font-family="Arial" font-size="9">allocateCountArray</text>
 <path d="M 794 791 C 814 787, 838 781, 857 768 C 879 753, 872 736, 893 719 C 894 718, 895 717, 896 716" stroke="#4e8cb9" fill="none"/>
 <polygon points="894,713 904,710 898,719 894,713" stroke="#4e8cb9" fill="#4e8cb9"/>
 <polygon points="1008,728 897,728 897,764 1008,764 1008,728" stroke="#90c4e4" fill="none"/>
 <text x="905" y="747" fill="#000000" font-family="Arial" font-size="9">computePositions</text>
 <path d="M 794 785 C 820 778, 856 770, 886 762" stroke="#4e8cb9" fill="none"/>
 <polygon points="885,758 896,759 887,765 885,758" stroke="#4e8cb9" fill="#4e8cb9"/>
 <path d="M 397 969 C 443 949, 540 917, 610 954 C 635 967, 623 991, 646 1006 C 726 1059, 764 1028, 857 1049 C 926 1065, 943 1069, 1012 1087 C 1031 1092, 1053 1098, 1070 1103" stroke="#4e8cb9" fill="none"/>
 <polygon points="1071,1100 1080,1106 1069,1107 1071,1100" stroke="#4e8cb9" fill="#4e8cb9"/>
 <path d="M 373 999 C 381 1045, 408 1163, 479 1226 C 603 1337, 810 1365, 903 1372" stroke="#4e8cb9" fill="none"/>
 <polygon points="903,1368 913,1372 902,1375 903,1368" stroke="#4e8cb9" fill="#4e8cb9"/>
 <polygon points="608,871 481,871 481,907 608,907 608,871" stroke="#90c4e4" fill="none"/>
 <text x="490" y="890" fill="#000000" font-family="Arial" font-size="9">computeMinRunSize</text>
 <path d="M 397 966 C 418 954, 451 936, 479 921 C 485 918, 491 915, 496 912" stroke="#4e8cb9" fill="none"/>
 <polygon points="494,909 505,907 498,915 494,909" stroke="#4e8cb9" fill="#4e8cb9"/>
 <polygon points="578,988 578,974 559,963 531,963 511,974 511,988 531,999 559,999 578,988" stroke="#c0c0c0" fill="none"/>
 <text x="529" y="982" fill="#000000" font-family="Arial" font-size="9">vector</text>
 <path d="M 397 981 C 424 981, 468 981, 500 981" stroke="#4e8cb9" fill="none"/>
 <polygon points="500,977 510,981 500,984 500,977" stroke="#4e8cb9" fill="#4e8cb9"/>
 <polygon points="783,1058 719,1058 719,1094 783,1094 783,1058" stroke="#90c4e4" fill="none"/>
 <text x="727" y="1077" fill="#000000" font-family="Arial" font-size="9">findRuns</text>
 <path d="M 397 988 C 462 1004, 630 1046, 708 1065" stroke="#4e8cb9" fill="none"/>
 <polygon points="709,1062 718,1068 707,1069 709,1062" stroke="#4e8cb9" fill="#4e8cb9"/>
 <polygon points="584,1181 506,1181 506,1217 584,1217 584,1181" stroke="#90c4e4" fill="none"/>
 <text x="514" y="1200" fill="#000000" font-family="Arial" font-size="9">mergeRuns</text>
 <path d="M 385 999 C 415 1038, 487 1127, 522 1172" stroke="#4e8cb9" fill="none"/>
 <polygon points="526,1170 529,1180 520,1174 526,1170" stroke="#4e8cb9" fill="#4e8cb9"/>
 <path d="M 784 1079 C 806 1083, 834 1090, 857 1103 C 877 1115, 871 1132, 893 1141 C 953 1167, 1031 1145, 1075 1128" stroke="#4e8cb9" fill="none"/>
 <polygon points="1073,1125 1084,1124 1076,1131 1073,1125" stroke="#4e8cb9" fill="#4e8cb9"/>
 <path d="M 784 1075 C 807 1077, 839 1082, 857 1103 C 945 1203, 814 1293, 893 1401 C 896 1405, 900 1409, 904 1412" stroke="#4e8cb9" fill="none"/>
 <polygon points="905,1409 912,1417 902,1415 905,1409" stroke="#4e8cb9" fill="#4e8cb9"/>
 <polygon points="1004,1121 1004,1107 973,1096 931,1096 901,1107 901,1121 931,1132 973,1132 1004,1121" stroke="#c0c0c0" fill="none"/>
 <text x="923" y="1115" fill="#000000" font-family="Arial" font-size="9">push_back</text>
 <path d="M 784 1082 C 813 1088, 858 1096, 893 1103" stroke="#4e8cb9" fill="none"/>
 <polygon points="894,1100 903,1105 892,1107 894,1100" stroke="#4e8cb9" fill="#4e8cb9"/>
 <path d="M 584 1210 C 682 1239, 938 1307, 1012 1266 C 1059 1240, 1086 1179, 1099 1143" stroke="#4e8cb9" fill="none"/>
 <polygon points="1096,1142 1102,1133 1102,1144 1096,1142" stroke="#4e8cb9" fill="#4e8cb9"/>
 <path d="M 584 1204 C 648 1212, 780 1227, 893 1233 C 946 1236, 970 1266, 1012 1233 C 1064 1192, 1029 1151, 1048 1087 C 1063 1037, 1084 981, 1096 947" stroke="#4e8cb9" fill="none"/>
 <polygon points="1093,947 1100,938 1100,949 1093,947" stroke="#4e8cb9" fill="#4e8cb9"/>
 <path d="M 551 1217 C 562 1256, 590 1351, 610 1431 C 628 1499, 605 1528, 646 1585 C 663 1608, 691 1625, 714 1636" stroke="#4e8cb9" fill="none"/>
 <polygon points="715,1633 723,1640 712,1640 715,1633" stroke="#4e8cb9" fill="#4e8cb9"/>
 <path d="M 799 736 C 819 732, 841 724, 857 709 C 890 677, 856 639, 893 611 C 933 580, 991 577, 1037 580" stroke="#4e8cb9" fill="none"/>
 <polygon points="1037,577 1046,581 1036,584 1037,577" stroke="#4e8cb9" fill="#4e8cb9"/>
 <path d="M 799 737 C 819 733, 842 724, 857 709 C 898 667, 850 622, 893 582 C 933 545, 995 536, 1042 535" stroke="#4e8cb9" fill="none"/>
 <polygon points="1042,531 1052,534 1042,538 1042,531" stroke="#4e8cb9" fill="#4e8cb9"/>
 <polygon points="994,928 911,928 911,964 994,964 994,928" stroke="#90c4e4" fill="none"/>
 <text x="919" y="947" fill="#000000" font-family="Arial" font-size="9">checkSorted</text>
 <path d="M 799 743 C 819 746, 842 753, 857 768 C 905 817, 849 866, 893 919 C 895 922, 898 925, 901 927" stroke="#4e8cb9" fill="none"/>
 <polygon points="903,925 909,933 899,931 903,925" stroke="#4e8cb9" fill="#4e8cb9"/>
 <path d="M 993 964 C 1000 968, 1006 973, 1012 978 C 1047 1010, 1076 1057, 1093 1086" stroke="#4e8cb9" fill="none"/>
 <polygon points="1096,1084 1098,1095 1090,1088 1096,1084" stroke="#4e8cb9" fill="#4e8cb9"/>
 <path d="M 994 939 C 1012 936, 1032 932, 1051 929" stroke="#4e8cb9" fill="none"/>
 <polygon points="1050,925 1061,927 1052,932 1050,925" stroke="#4e8cb9" fill="#4e8cb9"/>
 <polygon points="596,596 596,582 566,571 523,571 493,582 493,596 523,607 566,607 596,596" stroke="#c0c0c0" fill="none"/>
 <text x="516" y="590" fill="#000000" font-family="Arial" font-size="9">push_back</text>
 <path d="M 418 589 C 438 589, 461 589, 482 589" stroke="#4e8cb9" fill="none"/>
 <polygon points="482,585 492,589 482,592 482,585" stroke="#4e8cb9" fill="#4e8cb9"/>
 <polygon points="424,2387 424,2373 392,2362 347,2362 315,2373 315,2387 347,2398 392,2398 424,2387" stroke="#c0c0c0" fill="none"/>
 <text x="337" y="2381" fill="#000000" font-family="Arial" font-size="9">~unique_ptr</text>
 <path d="M 178 1987 C 181 2047, 197 2238, 295 2348 C 301 2354, 308 2360, 316 2364" stroke="#4e8cb9" fill="none"/>
 <polygon points="317,2361 325,2368 314,2367 317,2361" stroke="#4e8cb9" fill="#4e8cb9"/>
</svg>
